Coordinates
version=1
nRows=17
nColumns=24
inDegrees=yes

Units are S.I. units (second, meters, Newtons, ...)
Angles are in degrees.

endheader
time	pelvis_tilt	pelvis_list	pelvis_rotation	pelvis_tx	pelvis_ty	pelvis_tz	hip_flexion_r	hip_adduction_r	hip_rotation_r	knee_angle_r	ankle_angle_r	subtalar_angle_r	mtp_angle_r	hip_flexion_l	hip_adduction_l	hip_rotation_l	knee_angle_l	ankle_angle_l	subtalar_angle_l	mtp_angle_l	lumbar_extension	lumbar_bending	lumbar_rotation
      4.30500000	    -17.20638823	      3.09036204	     -8.45533282	     -1.27418134	     -0.04428220	     -0.31286060	     -0.57982763	     -1.77944298	      1.60542869	    -17.24803850	     11.47243317	      0.53428720	      1.36442003	     44.98190999	     -4.98438580	    -21.60935715	    -11.81052275	     -1.68080439	      9.20887724	     21.37804131	     19.58318148	     -2.31618169	     -0.97366514
      4.31000000	    -17.11930691	      3.37696373	     -8.53423587	     -1.26593493	     -0.04492368	     -0.31366513	     -0.70828737	     -2.32363716	      1.46475123	    -18.02778296	     10.88652996	      1.11726787	      1.85473151	     44.84504986	     -4.68922764	    -21.49961339	    -12.32192153	     -2.08979901	      8.51767514	     21.43105543	     19.67953411	     -2.56124826	     -0.80471191
      4.31500000	    -16.96811816	      3.55944956	     -8.45096156	     -1.25765890	     -0.04550925	     -0.31462055	     -0.93894577	     -2.76693235	      1.08337326	    -18.76815602	     10.10008706	      1.50656628	      2.89109267	     44.69120089	     -4.37437921	    -21.27558737	    -12.93798224	     -2.62674648	      7.82490513	     21.76300301	     19.67756195	     -2.78109527	     -0.85411128
      4.32000000	    -16.96736642	      3.85337450	     -8.50587467	     -1.24923164	     -0.04610477	     -0.31530751	     -0.94961817	     -3.26107278	      1.14330439	    -19.58097356	      9.23691540	      1.65056385	      3.21706728	     44.66621172	     -4.11155628	    -21.32063607	    -13.60090656	     -3.27173579	      7.19890049	     21.79491547	     19.90091429	     -3.05010820	     -0.75802329
      4.32500000	    -16.89766910	      4.06714868	     -8.40828706	     -1.24089930	     -0.04665320	     -0.31639014	     -0.98176412	     -3.74459723	      0.69994530	    -20.47959472	      8.29148847	      2.06601992	      4.30427552	     44.59784037	     -3.75563297	    -21.00620743	    -14.25681591	     -4.13513973	      6.14578003	     22.09814573	     19.99740407	     -3.27758599	     -0.78561236
      4.33000000	    -16.89444325	      4.37662962	     -8.33241400	     -1.23238622	     -0.04713301	     -0.31735207	     -0.93382214	     -4.29548934	      0.47255644	    -21.34123391	      7.17800899	      2.20206810	      5.65317552	     44.58740146	     -3.36149684	    -20.86600649	    -14.92241698	     -5.14327521	      5.06777077	     22.35763850	     20.22028128	     -3.59530519	     -0.81920554
      4.33500000	    -16.89015136	      4.69094223	     -8.35850030	     -1.22403103	     -0.04752074	     -0.31820802	     -0.75183172	     -4.84399041	      0.32053995	    -22.39416288	      6.00896984	      2.32580942	      6.44684626	     44.57336525	     -3.03075188	    -20.63407859	    -15.61213590	     -6.14453112	      3.93648483	     22.27058546	     20.42466861	     -3.87824765	     -0.66943173
      4.34000000	    -16.92321942	      5.05422298	     -8.20620975	     -1.21544989	     -0.04788402	     -0.31925428	     -0.56303522	     -5.45987127	     -0.07845949	    -23.36096317	      4.60814825	      2.23784387	      8.43605859	     44.60995986	     -2.52813811	    -20.26398001	    -16.29707668	     -7.21469882	      2.74195536	     22.15051340	     20.70042534	     -4.27172627	     -0.72223534
      4.34500000	    -16.96951539	      5.41298341	     -8.12564340	     -1.20707259	     -0.04817293	     -0.32030725	     -0.24289626	     -6.06518784	     -0.30143076	    -24.50200078	      3.21027893	      2.28558037	      9.58180409	     44.69625373	     -2.07155431	    -19.87814520	    -17.05505611	     -8.25081886	      1.37484674	     21.66900646	     20.96039242	     -4.62422501	     -0.75043351
      4.35000000	    -16.97849145	      5.79405752	     -8.08396130	     -1.19865130	     -0.04830649	     -0.32129068	      0.08369803	     -6.69937352	     -0.51217300	    -25.59793729	      1.50215813	      1.94445330	     12.06573468	     44.72837086	     -1.60683558	    -19.39805105	    -17.84081233	     -9.05412456	      0.16291292	     20.72606134	     21.19812897	     -4.98860581	     -0.65121446
      4.35500000	    -17.05158401	      6.18721560	     -7.95175290	     -1.19033416	     -0.04851512	     -0.32242402	      0.57293056	     -7.35163566	     -0.82514083	    -26.91998820	     -0.10363819	      1.89447969	     13.04897370	     44.86465829	     -1.06168080	    -18.78689381	    -18.64853017	     -9.84375867	     -1.23551730	     19.95908321	     21.47824186	     -5.38619991	     -0.68774709
      4.36000000	    -17.14784996	      6.60110877	     -7.78931526	     -1.18183639	     -0.04865556	     -0.32361100	      1.08712563	     -8.03419447	     -1.15900857	    -28.15734595	     -1.99394451	      1.54237181	     15.20321650	     45.01479624	     -0.46383736	    -18.13558349	    -19.51370635	    -10.30448491	     -2.42797089	     18.55483426	     21.81735799	     -5.80181064	     -0.72738701
      4.36500000	    -17.11730900	      7.00056143	     -7.77057103	     -1.17360132	     -0.04858598	     -0.32457345	      1.58740615	     -8.67970043	     -1.22050050	    -29.46698667	     -4.03551434	      0.89944677	     17.75238185	     45.02861316	      0.03512659	    -17.53198056	    -20.42863986	    -10.44305617	     -3.31434452	     16.91302323	     21.99062845	     -6.18270336	     -0.59335794
      4.37000000	    -17.18931035	      7.40294906	     -7.62577371	     -1.16534384	     -0.04864605	     -0.32574479	      2.23839302	     -9.34021576	     -1.43424049	    -30.89874706	     -6.04345564	      0.44109365	     19.40070677	     45.17096309	      0.61577197	    -16.98647538	    -21.35189288	    -10.55126316	     -4.34835990	     15.62386301	     22.25972620	     -6.58352183	     -0.63281628
      4.37500000	    -17.12100692	      7.77505991	     -7.62088321	     -1.15725619	     -0.04846712	     -0.32667392	      2.82141914	     -9.93388010	     -1.36573597	    -32.31500821	     -8.22673179	     -0.41981485	     21.83935136	     45.13686822	      1.08827907	    -16.52296635	    -22.30929506	    -10.25360714	     -4.92166421	     13.87447038	     22.36649387	     -6.93471922	     -0.49930681
      4.38000000	    -17.18643984	      8.17039742	     -7.51010546	     -1.14916795	     -0.04845956	     -0.32775102	      3.60713350	    -10.55554430	     -1.41873392	    -33.87249909	    -10.32758413	     -1.12888904	     23.47992577	     45.23243899	      1.63496921	    -16.10017330	    -23.21398104	     -9.95304811	     -5.56615436	     12.59965524	     22.60954766	     -7.32050217	     -0.49638163
      4.38500000	    -17.14885870	      8.53631727	     -7.49975142	     -1.14125415	     -0.04827385	     -0.32863465	      4.35888596	    -11.10610322	     -1.25423632	    -35.44512593	    -12.46703388	     -2.08730612	     25.34368816	     45.18567041	      2.08739251	    -15.83523357	    -24.10492243	     -9.40267368	     -5.89807337	     11.18636537	     22.72379857	     -7.66451650	     -0.38572669
